<?xml version="1.0" standalone="no"?>
<!DOCTYPE svg PUBLIC "-//W3C//DTD SVG 20010904//EN"
 "http://www.w3.org/TR/2001/REC-SVG-20010904/DTD/svg10.dtd">
<svg version="1.0" xmlns="http://www.w3.org/2000/svg"
 width="1408.000000pt" height="768.000000pt" viewBox="0 0 1408.000000 768.000000"
 preserveAspectRatio="xMidYMid meet">

<g transform="translate(0.000000,768.000000) scale(0.100000,-0.100000)"
fill="#000000" stroke="none">
<path d="M0 3840 l0 -3840 7040 0 7040 0 0 3840 0 3840 -7040 0 -7040 0 0
-3840z m3380 1941 c446 -150 852 -354 1166 -585 138 -102 332 -294 416 -412
182 -255 263 -539 237 -826 -25 -264 -128 -480 -313 -656 -67 -63 -108 -92
-179 -127 -51 -25 -113 -48 -139 -51 -46 -7 -48 -6 -48 19 0 21 10 31 58 57
204 109 363 339 403 585 12 77 15 246 4 293 -5 24 -12 32 -33 34 -20 2 -33 14
-52 49 -99 180 -238 294 -455 372 -111 39 -195 50 -355 45 -136 -4 -150 -6
-222 -37 -42 -18 -100 -49 -130 -69 -29 -20 -66 -44 -83 -52 -43 -22 -203
-184 -258 -262 -125 -175 -218 -452 -258 -768 -19 -144 -16 -512 5 -654 9 -60
16 -120 16 -133 0 -25 -5 -29 -475 -373 -491 -361 -487 -358 -514 -326 -29 35
160 811 291 1194 282 826 653 1357 1097 1572 98 48 224 88 312 100 46 6 98 15
114 20 40 12 187 12 217 1 15 -6 31 -5 43 1 13 8 21 7 29 -3 12 -15 49 -22 40
-8 -3 5 2 9 10 9 9 0 16 8 16 17 0 9 -3 13 -7 10 -3 -4 -11 -1 -17 7 -14 17
-77 39 -199 70 -144 37 -251 49 -457 49 -207 -1 -361 -18 -569 -63 -141 -31
-161 -30 -161 13 0 33 229 902 245 927 12 19 60 10 205 -39z m2924 -108 c-11
-65 -84 -394 -110 -498 -173 -685 -408 -1254 -667 -1617 -241 -337 -530 -543
-845 -604 -95 -18 -280 -18 -374 0 -226 44 -453 182 -579 353 -34 45 -129 221
-129 237 0 17 30 3 36 -16 10 -33 71 -128 108 -167 112 -121 296 -226 456
-262 122 -27 296 -22 410 11 160 47 313 142 425 262 239 256 366 627 391 1133
6 136 -8 439 -25 530 -4 24 -5 48 -2 52 3 5 101 74 216 153 116 79 249 171
296 205 47 33 141 98 209 145 67 47 132 93 144 102 35 29 48 23 40 -19z m701
-772 c17 -10 81 -90 143 -177 254 -358 296 -414 313 -414 10 0 20 -8 22 -17 3
-10 5 23 6 72 3 270 15 532 24 543 14 18 161 16 176 -2 9 -10 11 -124 9 -420
l-3 -406 -28 -27 c-26 -26 -33 -28 -130 -31 -87 -2 -107 0 -133 17 -27 16
-113 128 -297 386 -24 33 -79 109 -123 169 l-79 109 -5 -332 c-4 -280 -7 -333
-20 -341 -8 -5 -45 -10 -81 -10 -112 0 -104 -33 -104 417 0 421 2 440 54 468
41 23 218 20 256 -4z m1705 -7 c14 -36 12 -127 -2 -146 -11 -14 -52 -17 -293
-20 -186 -3 -287 -9 -302 -16 -26 -14 -68 -94 -60 -115 9 -23 56 -27 346 -27
202 0 280 -3 289 -12 16 -16 16 -142 -1 -156 -8 -7 -122 -12 -315 -14 -332 -3
-328 -3 -316 -63 11 -52 32 -82 65 -94 20 -7 130 -11 300 -11 314 0 299 5 299
-100 0 -105 17 -100 -314 -100 -361 0 -416 10 -497 91 -61 61 -72 107 -77 330
-5 264 16 348 105 416 75 58 108 62 451 63 l312 0 10 -26z m451 -119 c72 -80
133 -145 134 -145 1 0 61 65 135 145 l133 146 106 -3 c99 -3 106 -4 109 -24 2
-15 -43 -72 -168 -208 -93 -104 -170 -192 -170 -197 0 -6 55 -71 123 -145 179
-198 237 -267 237 -284 0 -33 -23 -40 -123 -40 l-99 0 -37 38 c-20 21 -85 94
-146 162 l-109 123 -80 -89 c-44 -49 -113 -122 -152 -161 l-70 -73 -96 0 c-75
0 -98 3 -109 16 -18 22 -10 33 181 243 91 100 169 191 174 201 7 15 -9 38 -86
122 -257 278 -264 288 -241 311 3 4 55 7 114 7 l108 0 132 -145z m912 138 c3
-5 8 -129 11 -278 8 -319 10 -336 43 -369 35 -35 73 -41 253 -41 182 0 218 9
252 63 22 36 23 45 26 322 2 179 7 289 14 297 7 9 39 13 94 13 74 0 85 -2 94
-21 8 -14 10 -119 8 -333 l-3 -313 -35 -69 c-27 -53 -46 -76 -84 -101 -79 -54
-107 -58 -371 -58 -206 0 -248 3 -294 18 -121 41 -181 113 -201 244 -13 80
-10 600 3 621 9 13 182 18 190 5z m1775 -5 c16 -16 16 -152 0 -166 -8 -6 -130
-11 -309 -14 -229 -3 -300 -7 -313 -17 -36 -30 -3 -125 47 -135 16 -3 122 -6
236 -7 132 0 217 -5 236 -12 65 -25 96 -52 121 -104 24 -48 25 -60 22 -170 -2
-91 -7 -127 -22 -156 -23 -46 -74 -82 -136 -96 -67 -16 -713 -14 -728 1 -16
16 -16 160 0 176 9 9 94 12 323 12 367 0 360 -2 353 87 -3 29 -10 59 -17 66
-8 8 -86 14 -264 18 -268 6 -290 9 -340 57 -47 44 -60 80 -65 178 -8 154 35
244 134 279 53 19 704 21 722 3z m-7868 -367 c0 -5 -26 -24 -57 -42 -32 -18
-96 -71 -144 -118 -74 -75 -92 -100 -142 -201 -72 -148 -87 -206 -94 -365 -5
-113 -3 -142 17 -220 29 -117 76 -227 136 -317 63 -96 220 -252 314 -313 401
-260 1043 -326 1664 -169 29 7 29 6 23 -28 -3 -20 -44 -172 -91 -339 -47 -167
-100 -358 -119 -424 l-33 -120 -34 1 c-48 1 -355 118 -576 219 -312 142 -626
329 -844 501 -114 91 -292 273 -362 370 -113 159 -188 321 -223 489 -25 118
-24 316 3 426 47 193 112 317 230 441 84 88 145 136 236 184 61 33 96 42 96
25z m153 -277 c118 -61 570 -339 591 -365 31 -36 33 -63 7 -105 -19 -31 -52
-53 -316 -209 -77 -45 -174 -103 -215 -129 -77 -48 -117 -56 -163 -35 -14 6
-30 22 -36 36 -15 32 -15 746 -1 773 12 23 57 49 83 50 10 0 32 -7 50 -16z
m3298 -437 c34 -23 81 -106 361 -649 123 -237 124 -230 -21 -226 l-96 3 -47
85 -48 85 -237 5 c-131 3 -252 4 -268 2 -26 -3 -35 -13 -69 -75 -59 -110 -55
-107 -163 -107 -107 0 -115 6 -90 68 8 20 103 206 210 412 156 300 202 380
227 398 28 19 46 22 120 22 74 0 92 -3 121 -23z m859 -2 c19 -14 64 -67 100
-118 204 -291 348 -482 363 -482 9 0 14 75 18 298 5 214 10 301 19 312 9 11
32 15 82 15 118 0 108 40 108 -420 0 -288 -3 -406 -12 -425 -19 -43 -56 -55
-167 -55 -96 0 -102 1 -133 29 -18 16 -122 152 -231 302 -109 151 -204 282
-212 293 -8 11 -21 16 -30 13 -13 -6 -15 -45 -15 -310 0 -222 -3 -306 -12
-315 -14 -14 -156 -16 -178 -2 -13 8 -15 65 -15 409 0 390 0 400 21 428 33 44
60 53 165 53 86 0 98 -2 129 -25z m1028 13 c19 -19 17 -861 -2 -877 -9 -8 -44
-11 -97 -9 -79 3 -83 4 -90 28 -4 14 -7 208 -8 432 -1 357 1 408 15 422 19 20
163 23 182 4z m486 -3 c17 -8 37 -24 43 -35 7 -10 53 -117 103 -237 120 -289
162 -383 170 -383 8 0 79 155 164 360 135 326 120 310 278 310 123 0 158 -12
183 -60 13 -24 15 -90 15 -419 0 -214 -3 -396 -6 -405 -5 -13 -23 -16 -94 -16
-49 0 -91 3 -93 8 -3 4 -8 151 -12 327 -4 176 -9 322 -11 324 -4 5 -20 -30
-154 -339 -56 -129 -111 -249 -121 -266 -25 -42 -69 -59 -154 -58 -82 0 -124
18 -153 66 -18 30 -192 430 -192 441 0 20 -62 138 -69 131 -5 -5 -11 -145 -14
-311 -3 -166 -8 -307 -12 -313 -10 -16 -170 -13 -184 4 -9 10 -11 120 -9 413
3 433 3 428 60 460 34 18 221 17 262 -2z m1964 3 c14 -14 16 -146 2 -168 -8
-13 -56 -16 -299 -20 -288 -5 -290 -5 -315 -29 -28 -27 -51 -84 -42 -106 5
-13 53 -15 315 -15 268 0 312 -2 325 -16 20 -19 22 -136 4 -152 -15 -11 -241
-22 -482 -22 l-169 0 6 -49 c7 -59 23 -87 57 -100 14 -6 153 -13 310 -17 157
-3 288 -8 292 -11 5 -2 8 -42 8 -88 0 -80 -1 -85 -23 -90 -13 -4 -165 -5 -338
-3 l-314 3 -60 30 c-67 34 -117 91 -137 158 -9 29 -13 111 -13 257 0 199 2
219 23 271 35 87 104 146 199 168 61 14 637 13 651 -1z m-4343 -1097 c79 -24
135 -52 135 -66 0 -22 -34 -45 -50 -34 -13 9 -12 10 2 6 21 -7 45 20 31 34
-15 15 -185 70 -200 65 -29 -12 -12 -34 35 -46 26 -6 63 -20 82 -31 19 -11 27
-18 17 -15 -10 3 -50 15 -90 27 -40 12 -74 23 -76 25 -2 2 1 15 7 29 14 30 28
31 107 6z m654 -7 c3 -3 -3 -12 -14 -22 -16 -15 -17 -15 -12 0 5 15 -10 28
-34 28 -5 0 -19 -21 -30 -47 -23 -53 -105 -173 -119 -173 -5 0 8 23 30 52 21
29 54 81 71 116 33 63 33 64 68 57 20 -4 38 -9 40 -11z m709 9 c-15 -4 -18
-17 -18 -84 l0 -80 -57 5 c-32 2 -82 5 -110 5 l-53 1 0 65 c0 63 -1 65 -25 65
-24 0 -25 -2 -25 -70 0 -60 -2 -70 -17 -69 -11 0 -13 3 -5 6 8 3 12 28 12 74
0 73 11 90 48 73 9 -4 24 -7 32 -6 10 1 11 0 3 -4 -8 -4 -13 -27 -13 -65 l0
-59 100 0 100 0 0 75 c0 71 1 75 23 74 16 -1 18 -2 5 -6z m2581 -29 c3 -3 0
-8 -6 -12 -6 -4 -31 -48 -56 -99 -26 -50 -51 -94 -57 -98 -17 -11 -11 -21 27
-48 46 -33 36 -36 -12 -4 -40 26 -41 30 -16 65 23 33 103 193 99 197 -2 2 -14
6 -28 9 -23 6 -28 -1 -78 -104 -29 -61 -58 -110 -65 -110 -7 0 -22 7 -33 16
-18 14 -18 15 4 4 20 -10 26 -8 38 7 16 21 65 119 88 176 l15 38 38 -16 c20
-9 39 -18 42 -21z m-2537 -43 l-4 -70 64 -3 63 -3 3 -32 3 -33 -65 0 -65 0 -4
-42 -4 -43 -1 48 -2 47 66 0 c62 0 65 1 62 23 -3 21 -7 22 -65 19 l-63 -4 0
81 c0 45 3 81 8 81 4 0 6 -31 4 -69z m1348 25 c22 -27 -124 -247 -164 -246 -6
0 -21 8 -33 18 l-21 17 55 60 c31 33 50 49 43 37 -6 -13 -27 -41 -46 -62 l-35
-39 22 -12 c21 -11 26 -8 61 32 20 24 54 75 74 113 29 55 34 70 23 77 -8 5
-128 9 -266 9 -246 0 -253 -1 -253 -20 0 -23 1 -23 165 -21 69 0 103 -3 90 -8
-11 -5 -75 -9 -142 -10 l-123 -2 0 35 0 36 253 2 c269 3 281 3 297 -16z m-732
-2 c12 -2 22 -11 22 -19 0 -20 -54 -128 -91 -182 -16 -23 -29 -43 -29 -46 0
-2 51 -54 113 -115 94 -94 110 -114 101 -129 -29 -47 -39 -43 -154 72 l-110
110 -67 -66 c-79 -77 -169 -149 -187 -149 -7 0 -23 11 -35 24 -23 24 -23 24
-3 35 25 13 43 14 23 2 -18 -11 -7 -41 15 -41 25 0 72 36 166 129 l88 86 112
-113 c109 -111 112 -113 130 -94 19 19 18 20 -39 78 -32 33 -84 83 -117 111
l-58 51 32 46 c17 26 47 79 67 118 27 56 32 73 21 79 -7 5 -97 9 -200 9 -180
0 -188 -1 -188 -20 0 -16 8 -20 58 -23 l57 -3 -62 -2 -63 -2 0 30 0 29 128 3
c134 3 232 0 270 -8z m-1404 -29 l-6 -24 118 -4 119 -3 -133 -2 -133 -2 18 30
c21 36 25 38 17 5z m2056 -13 c0 -5 -7 -17 -15 -28 -14 -17 -15 -18 -9 0 4 11
1 22 -7 27 -11 6 -8 9 9 9 12 0 22 -4 22 -8z m638 -29 c2 -18 -1 -33 -6 -33
-5 0 -7 11 -4 25 4 24 3 25 -59 26 -48 1 -56 3 -34 8 17 4 46 7 65 7 32 -1 35
-4 38 -33z m-1348 22 c0 -11 -43 -91 -73 -135 -53 -78 -128 -159 -191 -207
l-61 -46 71 66 c107 99 234 265 234 305 0 7 -29 12 -77 15 l-78 3 88 2 c48 1
87 0 87 -3z m943 -2 c-7 -2 -13 -13 -13 -24 0 -17 9 -19 98 -21 71 -1 85 -3
52 -7 -25 -4 -72 -6 -105 -6 l-60 0 -3 33 c-3 28 0 32 20 31 13 0 17 -3 11 -6z
m-2673 -57 c0 -10 -81 -90 -143 -143 l-37 -31 0 -131 0 -131 -35 0 -35 0 0
116 c0 109 -1 116 -17 103 -16 -13 -17 -12 -4 4 7 9 17 17 22 17 5 0 9 -52 9
-115 l0 -115 25 0 25 0 0 133 0 133 85 72 c87 74 100 96 65 107 -11 3 -20 10
-20 15 0 5 13 1 30 -8 16 -9 30 -21 30 -26z m-307 27 l-133 -4 0 -24 0 -25
168 0 167 -1 -40 -36 c-77 -69 -318 -213 -356 -213 -7 0 35 24 92 53 91 45
248 151 265 178 3 5 -59 9 -150 9 l-156 0 0 28 c0 16 3 32 7 35 3 4 65 6 137
5 l131 -2 -132 -3z m215 0 c-10 -2 -26 -2 -35 0 -10 3 -2 5 17 5 19 0 27 -2
18 -5z m742 -7 c0 -3 -4 -8 -10 -11 -5 -3 -10 -1 -10 4 0 6 5 11 10 11 6 0 10
-2 10 -4z m2810 -60 c0 -3 -27 7 -61 22 -51 22 -62 24 -70 11 -5 -8 -9 -17 -9
-21 0 -3 38 -25 85 -49 47 -23 85 -45 85 -48 0 -3 -16 -24 -36 -46 -19 -22
-32 -33 -28 -25 4 8 16 25 27 37 27 30 15 42 -78 84 -41 19 -75 38 -75 43 0 6
10 20 21 32 l22 23 58 -30 c33 -16 59 -31 59 -33z m-3021 27 l-106 -4 -58 -70
c-72 -86 -86 -95 -120 -73 -31 20 -31 30 -2 45 20 11 21 11 8 -5 -12 -15 -12
-19 2 -34 16 -15 20 -13 63 28 25 25 57 62 70 83 l24 37 113 -2 112 -2 -106
-3z m87 -86 c-19 -40 -45 -82 -57 -92 -16 -15 -14 -9 9 25 17 25 41 71 54 103
12 31 24 52 26 47 2 -5 -12 -43 -32 -83z m1677 81 c-4 -7 -13 -43 -19 -80 -17
-97 -63 -189 -125 -249 -46 -45 -50 -52 -37 -66 14 -13 18 -13 41 2 26 17 80
79 108 125 44 71 87 244 67 267 -12 14 -8 16 16 7 9 -3 14 -9 11 -13 -2 -4
-11 -43 -20 -87 -23 -112 -75 -213 -142 -274 -30 -28 -58 -50 -61 -50 -4 1
-18 9 -30 20 l-24 20 56 51 c67 61 111 145 126 244 14 87 17 95 30 95 7 0 8
-5 3 -12z m-1396 -35 c-20 -2 -52 -2 -70 0 -17 2 0 4 38 4 39 0 53 -2 32 -4z
m171 0 l-78 -4 0 -79 0 -80 -35 0 -35 0 2 78 2 77 3 -72 c4 -70 5 -73 28 -73
24 0 25 2 25 80 l0 80 83 -2 82 -2 -77 -3z m130 -35 l-1 -43 -4 37 c-3 28 -9
38 -26 41 -18 4 -17 5 6 6 26 1 27 -1 25 -41z m-509 -5 c-38 -100 -170 -258
-249 -298 -42 -21 -34 -13 49 50 69 52 136 136 176 220 27 58 42 75 24 28z
m497 -97 c-7 -39 -60 -121 -82 -130 -10 -4 -5 6 11 25 36 44 65 103 66 136 0
15 3 22 6 15 3 -7 2 -28 -1 -46z m-1118 1 c30 -18 68 -45 85 -61 24 -21 25
-24 7 -12 -93 58 -160 96 -168 96 -5 0 -15 -6 -21 -14 -9 -11 -1 -20 39 -46
63 -41 65 -49 3 -14 -67 38 -68 40 -49 69 20 30 26 29 104 -18z m3642 -27 l55
-52 -61 46 c-33 25 -65 46 -70 46 -5 0 -40 -34 -77 -75 -61 -67 -157 -150
-197 -169 -8 -4 -2 3 14 16 71 55 193 175 220 214 33 51 34 50 116 -26z
m-2463 28 c-3 -7 -5 -2 -5 12 0 14 2 19 5 13 2 -7 2 -19 0 -25z m2553 -23 c0
-7 -8 -19 -17 -26 -17 -13 -17 -12 -4 4 13 16 13 22 1 40 -12 20 -12 21 3 8
10 -7 17 -19 17 -26z m-2584 -59 c-15 -30 -44 -70 -66 -90 -39 -35 -118 -81
-126 -73 -3 2 21 17 52 33 63 32 104 76 137 146 12 26 23 45 26 43 2 -2 -8
-29 -23 -59z m2239 3 c-28 -27 -69 -62 -92 -77 -43 -27 -54 -46 -30 -55 7 -4
8 -6 1 -6 -6 -1 -17 5 -23 13 -10 11 -5 19 21 37 18 13 62 49 98 81 36 32 67
58 69 58 3 0 -17 -23 -44 -51z m-3685 16 c0 -4 -34 -22 -75 -42 -61 -29 -78
-33 -90 -23 -8 7 -15 18 -15 24 0 6 7 3 14 -7 13 -16 18 -16 87 17 87 40 79
37 79 31z m695 -45 c-20 -22 -107 -80 -121 -80 -4 0 23 23 61 50 76 55 88 60
60 30z m-310 -10 c-14 -15 -21 -17 -32 -9 -7 6 -13 14 -13 16 0 3 6 0 14 -6
10 -9 16 -8 26 4 7 8 15 15 18 15 3 0 -3 -9 -13 -20z m3075 -15 l0 -35 -280 0
c-260 0 -280 1 -279 18 0 10 3 12 6 5 3 -10 68 -13 274 -13 l269 0 0 25 0 26
-275 -3 c-151 -2 -275 0 -275 5 0 4 126 7 280 7 l280 0 0 -35z m-2150 -20 c0
-2 -13 -11 -29 -20 -16 -8 -36 -22 -45 -30 -12 -12 -16 -13 -16 -3 0 7 17 23
38 34 38 23 52 27 52 19z m-726 -81 c7 -19 2 -18 -19 6 -16 17 -16 20 -3 15 9
-4 19 -13 22 -21z m5619 -1414 c24 -68 99 -143 165 -166 29 -10 52 -22 52 -26
0 -3 -13 -9 -29 -13 -76 -16 -177 -119 -197 -197 -8 -36 -21 -36 -29 1 -16 74
-105 164 -193 195 l-37 14 48 21 c26 11 63 32 82 47 38 29 90 105 100 147 4
15 10 27 14 27 3 0 14 -22 24 -50z"/>
<path d="M3226 5703 c-7 -27 5 -43 33 -43 8 0 93 -25 190 -56 335 -107 351
-111 351 -96 0 6 -21 18 -47 28 -27 10 -57 23 -68 30 -37 23 -422 164 -447
164 -3 0 -9 -12 -12 -27z"/>
<path d="M3197 5573 c-14 -24 -111 -403 -104 -409 2 -3 74 0 158 7 246 19 585
-5 797 -56 54 -13 336 -103 382 -122 8 -3 24 -7 35 -8 11 -2 28 -6 38 -10 14
-6 16 -4 10 11 -17 46 -175 149 -397 261 -231 116 -489 214 -782 298 -135 39
-131 38 -137 28z"/>
<path d="M3837 5489 c7 -7 15 -10 18 -7 3 3 -2 9 -12 12 -14 6 -15 5 -6 -5z"/>
<path d="M3210 5079 c-68 -6 -131 -14 -139 -19 -13 -7 -45 -90 -37 -97 2 -2
36 4 77 12 156 33 248 45 408 55 91 6 174 13 184 16 18 6 18 7 -2 20 -27 19
-315 27 -491 13z"/>
<path d="M4657 4854 c3 -8 12 -14 19 -14 8 0 17 -7 20 -15 6 -14 34 -22 34
-10 0 12 -36 42 -57 47 -16 4 -20 2 -16 -8z"/>
<path d="M4350 4794 c0 -8 -5 -14 -11 -14 -5 0 -7 -5 -4 -10 4 -6 11 -8 16 -5
5 4 9 3 9 -2 0 -11 52 -34 93 -40 17 -3 39 -6 47 -8 28 -5 31 7 8 27 -54 47
-158 81 -158 52z"/>
<path d="M3201 4193 c-12 -16 -33 -43 -48 -62 -16 -19 -28 -38 -28 -42 0 -5
-9 -19 -20 -31 -11 -13 -19 -26 -17 -30 1 -5 -2 -8 -7 -8 -15 0 -107 -158
-171 -293 -150 -318 -285 -738 -359 -1117 -28 -146 -71 -388 -71 -400 0 -19
19 -10 102 53 46 34 135 100 199 146 l115 84 -1 316 c0 331 10 446 55 665 53
260 159 541 262 693 31 46 22 69 -11 26z"/>
<path d="M3050 3506 c0 -4 -7 -39 -15 -79 -40 -195 -47 -269 -52 -519 -3 -141
-2 -277 1 -302 l7 -46 40 27 c39 27 40 30 35 73 -29 237 -36 559 -16 744 5 55
8 101 5 104 -3 3 -5 2 -5 -2z"/>
<path d="M2665 3389 c-4 -6 -5 -12 -2 -15 2 -3 7 2 10 11 7 17 1 20 -8 4z"/>
<path d="M2590 3195 c-29 -70 -131 -391 -168 -525 -68 -248 -145 -594 -134
-604 9 -10 83 40 87 59 3 11 14 79 25 150 42 269 122 630 186 843 25 82 28
135 4 77z"/>
<path d="M6184 5594 c-59 -42 -62 -46 -68 -96 -4 -29 -25 -142 -47 -251 -176
-873 -442 -1524 -763 -1864 -84 -89 -182 -171 -192 -160 -3 2 14 19 37 38 69
55 216 227 294 344 175 265 334 636 453 1065 37 134 53 194 97 385 25 108 93
460 90 463 -2 2 -113 -72 -247 -164 l-243 -168 0 -316 c0 -339 -6 -405 -56
-653 -36 -181 -95 -367 -160 -506 -205 -435 -571 -701 -969 -704 -63 0 -126 3
-140 7 -19 5 -21 5 -9 -3 35 -23 202 -43 294 -37 212 15 399 87 595 232 364
268 688 851 925 1662 75 260 185 711 185 762 0 16 -12 11 -76 -36z"/>
<path d="M5487 5113 c-58 -37 -59 -37 -53 -78 31 -224 31 -613 1 -810 -60
-386 -183 -669 -379 -874 -96 -99 -172 -157 -286 -214 -116 -59 -80 -52 45 8
275 134 490 407 615 781 79 239 127 516 137 794 6 175 -3 430 -16 430 -3 -1
-32 -17 -64 -37z"/>
<path d="M3449 3853 c-18 -87 -18 -288 0 -378 47 -235 160 -436 365 -652 220
-231 519 -434 941 -639 227 -110 611 -264 659 -264 10 0 21 18 31 52 8 28 14
53 12 54 -2 2 -68 23 -147 48 -309 96 -646 228 -870 341 -101 51 -321 187
-402 248 -89 68 -229 190 -240 212 -17 30 10 14 78 -46 262 -231 634 -436
1114 -613 163 -60 471 -159 476 -153 3 3 34 107 69 233 35 126 67 238 71 248
7 18 4 19 -62 12 -356 -39 -702 -15 -1007 69 -332 91 -548 207 -738 394 -154
153 -253 321 -306 519 -23 82 -27 119 -27 240 -1 78 -2 142 -2 142 -1 0 -8
-30 -15 -67z"/>
<path d="M3536 3520 c9 -50 57 -167 94 -231 232 -395 642 -621 1280 -705 208
-27 689 -8 711 28 10 15 42 138 38 142 -2 2 -42 -4 -89 -15 -190 -42 -308 -53
-555 -53 -330 -1 -535 33 -769 125 -333 131 -581 378 -696 691 -15 40 -18 44
-14 18z"/>
<path d="M4076 4109 c-8 -79 -8 -464 0 -551 l7 -67 39 20 c58 30 501 299 517
314 11 11 12 17 2 29 -25 30 -515 316 -542 316 -12 0 -18 -14 -23 -61z"/>
<path d="M7294 3617 c-6 -12 -41 -80 -77 -152 -37 -71 -67 -136 -67 -142 0
-10 38 -13 159 -13 88 0 162 4 165 8 5 9 -151 322 -162 322 -4 0 -12 -10 -18
-23z"/>
</g>
</svg>
